# xmcd
#
# Track frame offsets:
#	150
#	13387
#	27562
#	40650
#	60987
#	72975
#	82837
#	99812
#	119500
#	132725
#	146812
#	159850
#	180225
#	192200
#	202125
#	219075
#
# Disc length: 3183 seconds
#
# Revision: 0
# Processed by: cddbd v1.5.2PL0 Copyright (c) Steve Scherf et al.
# Submitted via: audiograbber 1.83.01
#
DISCID=db0c6d10
DTITLE=Various Artist - Male Country Hits (Singing Machine 864)
DYEAR=1900
DGENRE=Karaoke
TTITLE0=Roger Miller - King of the Road
TTITLE1=Jimmy Dean - Big Bad John
TTITLE2=Johnny Rivers - Mountain of Love
TTITLE3=Arlo Guthrie - City of New Orleans
TTITLE4=Rocky Top - Lynn Anderson
TTITLE5=Tom T. Hall - I Love
TTITLE6=Ray Price - For the Good Times
TTITLE7=Kris Kristofferson - Help me Make it through the Night
TTITLE8=Roger Miller (vocal) - King of the Road
TTITLE9=Jimmy Dean (vocal) - Big Bad John
TTITLE10=Johnny Rivers (vocal) - Mountain of Love
TTITLE11=Arlo Guthrie (vocal) - City of New Orleans
TTITLE12=Rocky Top (vocal) - Lynn Anderson 
TTITLE13=Tom T. Hall (vocal) - I Love
TTITLE14=Ray Price (vocal) - For the Good Times
TTITLE15=Kris Kristofferson (vocal) - Help me Make it through the Night
EXTD=
EXTT0=
EXTT1=
EXTT2=
EXTT3=
EXTT4=
EXTT5=
EXTT6=
EXTT7=
EXTT8=
EXTT9=
EXTT10=
EXTT11=
EXTT12=
EXTT13=
EXTT14=
EXTT15=
PLAYORDER=
